<svg width="25" height="22" viewBox="0 0 25 22" fill="none" xmlns="http://www.w3.org/2000/svg">
<path d="M24.8369 10.7546L24.8312 10.7489C23.7876 8.56047 22.5375 6.79145 21.0839 5.44187L19.6303 6.89132C20.8832 8.03832 21.967 9.56481 22.9016 11.4822C20.5134 16.3984 17.1273 18.7323 12.4998 18.7323C11.029 18.7323 9.68146 18.4955 8.45148 18.0161L6.88318 19.5769C8.56043 20.3815 10.4298 20.7867 12.4998 20.7867C18.0104 20.7867 22.1161 17.9191 24.8341 12.2183C25.0548 11.7561 25.0548 11.2197 24.8369 10.7546ZM23.002 1.27612L21.7863 0.0663381C21.6975 -0.0221127 21.5512 -0.0221127 21.4624 0.0663381L18.1136 3.39608C16.4392 2.58861 14.5699 2.18345 12.4998 2.18345C6.98926 2.18345 2.88358 5.05097 0.165575 10.7518V10.7546C-0.0551916 11.2168 -0.0551916 11.759 0.165575 12.224C1.2092 14.4125 2.45925 16.1815 3.91287 17.5339L1.0257 20.4015C0.936823 20.4899 0.936823 20.6354 1.0257 20.7239L2.24135 21.9337C2.33023 22.0221 2.47645 22.0221 2.56533 21.9337L23.002 1.59568C23.0909 1.51008 23.0909 1.36457 23.002 1.27612ZM9.25713 12.2098C9.20266 11.9758 9.17399 11.7333 9.17399 11.4851C9.17399 9.71889 10.6104 8.28941 12.3851 8.28941C12.6346 8.28941 12.8811 8.31794 13.1134 8.37215L9.25713 12.2098ZM14.5469 6.94553C13.8904 6.63738 13.1593 6.46333 12.3851 6.46333C9.59832 6.46333 7.33905 8.71169 7.33905 11.4851C7.33905 12.2554 7.51394 12.983 7.82359 13.6364L5.36935 16.0788C4.11643 14.9318 3.03267 13.4053 2.098 11.4879C4.48915 6.57175 7.87519 4.23779 12.4998 4.23779C13.9706 4.23779 15.3182 4.47461 16.5482 4.95396L14.5469 6.94553Z" fill="#CFCFCF"/>
<path d="M12.3852 14.6807C12.2017 14.6807 12.021 14.6664 11.8462 14.635L10.3811 16.093C10.9946 16.3584 11.6741 16.5039 12.3852 16.5039C15.172 16.5039 17.4313 14.2555 17.4313 11.4822C17.4313 10.7746 17.285 10.0984 17.0184 9.48776L15.5533 10.9458C15.582 11.1198 15.5992 11.2996 15.5992 11.4822C15.5963 13.2512 14.1599 14.6807 12.3852 14.6807Z" fill="#CFCFCF"/>
</svg>
