<svg width="26" height="20" viewBox="0 0 26 20" fill="none" xmlns="http://www.w3.org/2000/svg">
<path d="M25.3762 8.79492C22.5989 2.94434 18.4006 0 12.7727 0C7.14185 0 2.94653 2.94434 0.169189 8.79785C-0.0563965 9.27246 -0.0563965 9.8291 0.169189 10.3066C2.94653 16.1572 7.14477 19.1016 12.7727 19.1016C18.4036 19.1016 22.5989 16.1572 25.3762 10.3037C25.6018 9.8291 25.6018 9.27832 25.3762 8.79492ZM12.7727 16.9922C8.04712 16.9922 4.58716 14.5957 2.14673 9.55078C4.58716 4.50586 8.04712 2.10938 12.7727 2.10938C17.4983 2.10938 20.9583 4.50586 23.3987 9.55078C20.9612 14.5957 17.5012 16.9922 12.7727 16.9922Z" fill="#CFCFCF"/>
<path d="M12.6555 4.39453C9.80786 4.39453 7.49927 6.70312 7.49927 9.55078C7.49927 12.3984 9.80786 14.707 12.6555 14.707C15.5032 14.707 17.8118 12.3984 17.8118 9.55078C17.8118 6.70312 15.5032 4.39453 12.6555 4.39453ZM12.6555 12.832C10.842 12.832 9.37427 11.3643 9.37427 9.55078C9.37427 7.7373 10.842 6.26953 12.6555 6.26953C14.469 6.26953 15.9368 7.7373 15.9368 9.55078C15.9368 11.3643 14.469 12.832 12.6555 12.832Z" fill="#CFCFCF"/>
</svg>
